<mxfile host="app.diagrams.net" agent="Mozilla/5.0 (Windows NT 10.0; Win64; x64) AppleWebKit/537.36 (KHTML, like Gecko) Chrome/131.0.0.0 Safari/537.36" version="26.0.3">
  <diagram id="C5RBs43oDa-KdzZeNtuy" name="Page-1">
    <mxGraphModel dx="1290" dy="530" grid="1" gridSize="10" guides="1" tooltips="1" connect="1" arrows="1" fold="1" page="1" pageScale="1" pageWidth="827" pageHeight="1169" math="0" shadow="0">
      <root>
        <mxCell id="WIyWlLk6GJQsqaUBKTNV-0" />
        <mxCell id="WIyWlLk6GJQsqaUBKTNV-1" parent="WIyWlLk6GJQsqaUBKTNV-0" />
        <mxCell id="KbMh_OYteIi0drGgxPu4-3" style="edgeStyle=orthogonalEdgeStyle;rounded=0;orthogonalLoop=1;jettySize=auto;html=1;exitX=0.5;exitY=1;exitDx=0;exitDy=0;exitPerimeter=0;entryX=0.5;entryY=0;entryDx=0;entryDy=0;" edge="1" parent="WIyWlLk6GJQsqaUBKTNV-1" source="KbMh_OYteIi0drGgxPu4-0" target="KbMh_OYteIi0drGgxPu4-2">
          <mxGeometry relative="1" as="geometry" />
        </mxCell>
        <mxCell id="KbMh_OYteIi0drGgxPu4-0" value="START" style="strokeWidth=2;html=1;shape=mxgraph.flowchart.start_1;whiteSpace=wrap;" vertex="1" parent="WIyWlLk6GJQsqaUBKTNV-1">
          <mxGeometry x="364" y="40" width="100" height="60" as="geometry" />
        </mxCell>
        <mxCell id="KbMh_OYteIi0drGgxPu4-5" style="edgeStyle=orthogonalEdgeStyle;rounded=0;orthogonalLoop=1;jettySize=auto;html=1;exitX=0.5;exitY=1;exitDx=0;exitDy=0;" edge="1" parent="WIyWlLk6GJQsqaUBKTNV-1" source="KbMh_OYteIi0drGgxPu4-2" target="KbMh_OYteIi0drGgxPu4-4">
          <mxGeometry relative="1" as="geometry" />
        </mxCell>
        <mxCell id="KbMh_OYteIi0drGgxPu4-2" value="READ NumberOfHours" style="shape=parallelogram;html=1;strokeWidth=2;perimeter=parallelogramPerimeter;whiteSpace=wrap;rounded=1;arcSize=12;size=0.23;" vertex="1" parent="WIyWlLk6GJQsqaUBKTNV-1">
          <mxGeometry x="294" y="150" width="240" height="60" as="geometry" />
        </mxCell>
        <mxCell id="KbMh_OYteIi0drGgxPu4-7" style="edgeStyle=orthogonalEdgeStyle;rounded=0;orthogonalLoop=1;jettySize=auto;html=1;exitX=0.5;exitY=1;exitDx=0;exitDy=0;entryX=0.5;entryY=0;entryDx=0;entryDy=0;" edge="1" parent="WIyWlLk6GJQsqaUBKTNV-1" source="KbMh_OYteIi0drGgxPu4-4" target="KbMh_OYteIi0drGgxPu4-6">
          <mxGeometry relative="1" as="geometry" />
        </mxCell>
        <mxCell id="KbMh_OYteIi0drGgxPu4-4" value="&lt;div&gt;DAYS = NumberOfHours / 24&lt;/div&gt;&lt;div&gt;WEEKS = DAYS / 7&lt;/div&gt;" style="rounded=1;whiteSpace=wrap;html=1;absoluteArcSize=1;arcSize=14;strokeWidth=2;" vertex="1" parent="WIyWlLk6GJQsqaUBKTNV-1">
          <mxGeometry x="202" y="270" width="424" height="70" as="geometry" />
        </mxCell>
        <mxCell id="KbMh_OYteIi0drGgxPu4-9" style="edgeStyle=orthogonalEdgeStyle;rounded=0;orthogonalLoop=1;jettySize=auto;html=1;exitX=0.5;exitY=1;exitDx=0;exitDy=0;" edge="1" parent="WIyWlLk6GJQsqaUBKTNV-1" source="KbMh_OYteIi0drGgxPu4-6" target="KbMh_OYteIi0drGgxPu4-8">
          <mxGeometry relative="1" as="geometry" />
        </mxCell>
        <mxCell id="KbMh_OYteIi0drGgxPu4-6" value="PRINT &quot; WEEKS IS &quot; + WEEKS&lt;div&gt;PRINT &quot; DAYS IS &quot; + DAYS&lt;/div&gt;" style="shape=parallelogram;html=1;strokeWidth=2;perimeter=parallelogramPerimeter;whiteSpace=wrap;rounded=1;arcSize=12;size=0.23;" vertex="1" parent="WIyWlLk6GJQsqaUBKTNV-1">
          <mxGeometry x="227" y="410" width="374" height="60" as="geometry" />
        </mxCell>
        <mxCell id="KbMh_OYteIi0drGgxPu4-8" value="END" style="strokeWidth=2;html=1;shape=mxgraph.flowchart.terminator;whiteSpace=wrap;" vertex="1" parent="WIyWlLk6GJQsqaUBKTNV-1">
          <mxGeometry x="364" y="510" width="100" height="60" as="geometry" />
        </mxCell>
      </root>
    </mxGraphModel>
  </diagram>
</mxfile>
